<svg width="12" height="17" viewBox="0 0 12 17" fill="none" xmlns="http://www.w3.org/2000/svg">
<path d="M6 1C7.44647 1 8.72046 1.53526 9.84082 2.63672C10.9347 3.71225 11.5009 5.16774 11.5 7.05957C11.5 8.26779 11.0496 9.62564 10.0879 11.1426C9.18188 12.5715 7.82246 14.1284 6 15.8174C4.17807 14.128 2.81908 12.571 1.91309 11.1426C0.951408 9.62625 0.5005 8.26834 0.5 7.05957L0.506836 6.70996C0.568743 5.10224 1.06203 3.82565 1.96094 2.84277L2.16016 2.63672C3.20989 1.60424 4.39477 1.06881 5.73047 1.00586L6 1ZM6 5C5.38428 5 4.84497 5.1384 4.47266 5.53125C4.10578 5.91851 4 6.45032 4 7C4 7.53938 4.15048 8.05229 4.5127 8.43262C4.87889 8.8171 5.39842 9 6 9C6.54968 9 7.08149 8.89422 7.46875 8.52734C7.8616 8.15503 8 7.61572 8 7C8 6.4117 7.89959 5.86444 7.51758 5.48242C7.13556 5.10041 6.5883 5 6 5Z" fill="#8CC841" stroke="black"/>
</svg>
